# Blender 4.0.2
# www.blender.org
mtllib emission_obj_texture_test.mtl
o light
v 0.050939 1.699671 6.697037
v 0.116542 1.932755 6.762640
v 0.057474 2.018939 6.703571
v 0.000000 1.919003 6.646098
v 0.050939 1.699671 6.646098
v 0.116542 1.932755 6.646098
v 0.057474 2.018939 6.646098
v 0.112671 1.919003 6.646098
v 0.058161 1.725330 6.646098
v 0.000000 1.699671 6.697037
v 0.000000 1.932755 6.762640
v 0.000000 2.018939 6.703571
v 0.000654 1.918261 6.758454
v 0.000000 1.725330 6.704259
v 0.000000 1.649895 6.646098
v 0.098801 1.919003 6.758770
v 0.112671 1.919003 6.744899
v 0.116172 1.931442 6.762270
v 0.058161 1.725330 6.690388
v 0.044290 1.725330 6.704259
v 0.054660 1.712891 6.700758
v 0.089930 1.919003 6.749899
v 0.103801 1.919003 6.736028
v 0.103801 1.919003 6.646098
v 0.000000 1.919003 6.749899
v 0.047641 1.725330 6.680153
v 0.033771 1.725330 6.694024
v 0.000000 1.725330 6.694024
v 0.047641 1.725330 6.646098
v 0.000000 1.725330 6.646098
v 0.107598 1.945805 6.646098
v 0.000000 1.945805 6.753696
v 0.086305 1.948299 6.747858
v 0.106117 1.941942 6.752214
v 0.101760 1.948299 6.732403
v 0.094154 1.959396 6.740252
v 0.028737 2.018939 6.646098
v 0.000000 2.018939 6.674835
v 0.014368 2.018939 6.660466
v 0.000000 2.104247 6.646098
v 0.028737 2.052281 6.646098
v 0.000000 2.052281 6.674835
v 0.014368 2.052281 6.660466
v 0.009807 2.052281 6.655905
v 0.000000 2.052281 6.665980
v 0.019364 2.052281 6.646098
v 0.026141 2.078198 6.646098
v 0.009807 2.078198 6.655905
v 0.000000 2.078198 6.665980
v 0.019364 2.078198 6.646098
v 0.000000 2.078198 6.672580
v 0.016584 2.078198 6.662506
v -0.050939 1.699671 6.697037
v -0.116542 1.932755 6.762640
v -0.057474 2.018939 6.703571
v -0.050939 1.699671 6.646098
v -0.116542 1.932755 6.646098
v -0.057474 2.018939 6.646098
v -0.112671 1.919003 6.646098
v -0.058161 1.725330 6.646098
v -0.098146 1.918261 6.758454
v -0.112671 1.919003 6.744899
v -0.116172 1.931442 6.762270
v -0.058161 1.725330 6.690388
v -0.044290 1.725330 6.704259
v -0.054660 1.712891 6.700758
v -0.089930 1.919003 6.749899
v -0.103801 1.919003 6.736028
v -0.103801 1.919003 6.646098
v -0.047641 1.725330 6.680153
v -0.033771 1.725330 6.694024
v -0.047641 1.725330 6.646098
v -0.107598 1.945805 6.646098
v -0.086305 1.948299 6.747858
v -0.106117 1.941942 6.752214
v -0.101760 1.948299 6.732403
v -0.094154 1.959396 6.740252
v -0.028737 2.018939 6.646098
v -0.014368 2.018939 6.660466
v -0.028737 2.052281 6.646098
v -0.014368 2.052281 6.660466
v -0.009807 2.052281 6.655905
v -0.019364 2.052281 6.646098
v -0.026141 2.078198 6.646098
v -0.009807 2.078198 6.655905
v -0.019364 2.078198 6.646098
v -0.016584 2.078198 6.662506
v 0.050939 1.699671 6.595160
v 0.116542 1.932755 6.529556
v 0.057474 2.018939 6.588625
v 0.000000 1.699671 6.595160
v 0.000000 1.932755 6.529556
v 0.000000 2.018939 6.588625
v 0.000000 1.919003 6.533427
v 0.000000 1.725330 6.587937
v 0.098801 1.919003 6.533427
v 0.112671 1.919003 6.547297
v 0.116172 1.931442 6.529926
v 0.058161 1.725330 6.601808
v 0.044290 1.725330 6.587937
v 0.054660 1.712891 6.591438
v 0.089930 1.919003 6.542297
v 0.103801 1.919003 6.556168
v 0.000000 1.919003 6.542297
v 0.047641 1.725330 6.612043
v 0.033771 1.725330 6.598173
v 0.000000 1.725330 6.598173
v 0.000000 1.945805 6.538500
v 0.086305 1.948299 6.544339
v 0.106117 1.941942 6.539982
v 0.101760 1.948299 6.559793
v 0.094154 1.959396 6.551944
v 0.000000 2.018939 6.617362
v 0.014368 2.018939 6.631730
v 0.000000 2.052281 6.617362
v 0.014368 2.052281 6.631730
v 0.009807 2.052281 6.636292
v 0.000000 2.052281 6.626216
v 0.009807 2.078198 6.636292
v 0.000000 2.078198 6.626216
v 0.000000 2.078198 6.619616
v 0.016584 2.078198 6.629691
v -0.050939 1.699671 6.595160
v -0.116542 1.932755 6.529556
v -0.057474 2.018939 6.588625
v -0.098801 1.919003 6.533427
v -0.112671 1.919003 6.547297
v -0.116172 1.931442 6.529926
v -0.058161 1.725330 6.601808
v -0.044290 1.725330 6.587937
v -0.054660 1.712891 6.591438
v -0.089930 1.919003 6.542297
v -0.103801 1.919003 6.556168
v -0.047641 1.725330 6.612043
v -0.033771 1.725330 6.598173
v -0.086305 1.948299 6.544339
v -0.106117 1.941942 6.539982
v -0.101760 1.948299 6.559793
v -0.094154 1.959396 6.551944
v -0.014368 2.018939 6.631730
v -0.014368 2.052281 6.631730
v -0.009807 2.052281 6.636292
v -0.009807 2.078198 6.636292
v -0.016584 2.078198 6.629691
v 0.121012 1.542833 6.606055
v -0.010477 1.661898 6.659070
v 0.121012 1.626412 6.606055
v -0.010477 1.661898 6.637759
v 0.010835 1.619851 6.659070
v 0.010835 1.661898 6.659070
v 0.010835 1.619851 6.637759
v 0.010835 1.661898 6.637759
v -0.010477 1.640875 6.659070
v -0.010477 1.640875 6.637759
v 0.010835 1.640875 6.637759
v 0.010835 1.640875 6.659070
v 0.121012 1.595134 6.637759
v 0.121012 1.574111 6.637759
v 0.121012 1.574111 6.659070
v 0.121012 1.595134 6.659070
v -0.010477 1.632277 6.659070
v 0.001949 1.619851 6.659070
v 0.001949 1.619851 6.637759
v -0.010477 1.632277 6.637759
v 0.121012 1.542833 6.690777
v 0.121012 1.626412 6.690777
v 0.141834 1.542833 6.690777
v 0.141834 1.542833 6.606055
v 0.141834 1.626412 6.606055
v 0.141834 1.626412 6.690777
vn 0.4020 -0.8227 0.4020
vn 0.7544 0.6561 0.0198
vn 0.0198 0.6561 0.7544
vn 0.9626 -0.2709 -0.0000
vn -0.0000 -0.2709 0.9626
vn -0.0000 1.0000 -0.0000
vn 0.4557 -0.7647 0.4557
vn 0.6587 0.3637 0.6587
vn 0.6570 -0.3698 0.6570
vn -0.0005 -0.2740 0.9617
vn 0.7019 0.0025 -0.7123
vn -0.0000 -1.0000 -0.0000
vn -0.0040 0.9990 0.0447
vn 0.6545 -0.3786 0.6545
vn -0.7019 -0.0025 0.7123
vn 0.0258 0.5515 0.8338
vn 0.5077 0.6960 0.5077
vn 0.8338 0.5515 0.0258
vn 0.7071 -0.0000 0.7071
vn 0.7162 -0.0000 0.6979
vn 0.7166 -0.0000 0.6975
vn 0.3919 0.6559 0.6452
vn 0.6528 0.6551 0.3803
vn -0.4020 -0.8227 0.4020
vn -0.7544 0.6561 0.0198
vn -0.0198 0.6561 0.7544
vn -0.9626 -0.2709 -0.0000
vn -0.4617 -0.7626 0.4530
vn -0.6587 0.3637 0.6587
vn -0.6507 -0.3690 0.6637
vn -0.0000 -0.2775 0.9607
vn -0.7019 0.0025 -0.7123
vn -0.0000 0.9963 0.0864
vn -0.6545 -0.3786 0.6545
vn 0.7081 0.0005 0.7061
vn -0.0258 0.5515 0.8338
vn -0.5077 0.6960 0.5077
vn -0.8338 0.5515 0.0258
vn -0.7071 -0.0000 0.7071
vn -0.7162 -0.0000 0.6979
vn -0.7166 -0.0000 0.6975
vn -0.3919 0.6559 0.6452
vn -0.6528 0.6551 0.3803
vn 0.4020 -0.8227 -0.4020
vn 0.7544 0.6561 -0.0198
vn 0.0198 0.6561 -0.7544
vn -0.0000 -0.2709 -0.9626
vn 0.4557 -0.7647 -0.4557
vn 0.6587 0.3637 -0.6587
vn 0.6570 -0.3698 -0.6570
vn 0.7019 0.0025 0.7123
vn 0.6545 -0.3786 -0.6545
vn -0.7019 -0.0025 -0.7123
vn 0.0258 0.5515 -0.8338
vn 0.5077 0.6960 -0.5077
vn 0.8338 0.5515 -0.0258
vn 0.7071 -0.0000 -0.7071
vn 0.7162 -0.0000 -0.6979
vn 0.7166 -0.0000 -0.6975
vn 0.3919 0.6559 -0.6452
vn 0.6528 0.6551 -0.3803
vn -0.4020 -0.8227 -0.4020
vn -0.7544 0.6561 -0.0198
vn -0.0198 0.6561 -0.7544
vn -0.4557 -0.7647 -0.4557
vn -0.6587 0.3637 -0.6587
vn -0.6570 -0.3698 -0.6570
vn -0.7019 0.0025 0.7123
vn -0.6545 -0.3786 -0.6545
vn 0.7019 -0.0025 -0.7123
vn -0.0258 0.5515 -0.8338
vn -0.5077 0.6960 -0.5077
vn -0.8338 0.5515 -0.0258
vn -0.7071 -0.0000 -0.7071
vn -0.7162 -0.0000 -0.6979
vn -0.7166 -0.0000 -0.6975
vn -0.3919 0.6559 -0.6452
vn -0.6528 0.6551 -0.3803
vn -1.0000 -0.0000 -0.0000
vn -0.0000 -0.0000 -1.0000
vn 1.0000 -0.0000 -0.0000
vn -0.0000 -0.0000 1.0000
vn -0.3834 -0.9236 -0.0000
vn 0.3834 0.9236 -0.0000
vn -0.7071 -0.7071 -0.0000
vn -0.9604 -0.2785 -0.0000
vn -0.0000 -0.2772 0.9608
vn 0.9604 -0.2785 -0.0000
vn -0.0000 -0.2772 -0.9608
vt 0.811886 0.517358
vt 0.859757 0.595408
vt 0.814383 0.642628
vt 0.767163 0.597254
vt 0.825341 0.392088
vt 0.646763 0.392089
vt 0.649291 0.369408
vt 0.776404 0.359844
vt 0.808703 0.371278
vt 0.864656 0.217893
vt 0.804661 0.337255
vt 0.841975 0.215365
vt 0.394171 0.891257
vt 0.430422 0.890015
vt 0.430414 0.950952
vt 0.407517 0.956045
vt 0.395454 0.946681
vt 0.408519 0.980519
vt 0.342915 1.000000
vt 0.337618 0.963433
vt 0.700567 0.199606
vt 0.732285 0.203140
vt 0.722722 0.263729
vt 0.682756 0.213737
vt 0.288462 0.493047
vt 0.301145 0.534384
vt 0.052150 0.499702
vt 0.057136 0.494551
vt 0.087039 0.477361
vt 0.070936 0.463538
vt 0.236457 0.267469
vt 0.238451 0.269658
vt -0.000000 0.279613
vt 0.032314 0.276942
vt 0.239515 0.265369
vt 0.096832 0.466036
vt 0.278110 0.462438
vt 0.080451 0.451968
vt 0.050508 0.272965
vt 0.248757 0.264834
vt 0.240097 0.265596
vt 0.243045 0.264987
vt 0.242931 0.264024
vt 0.240397 0.261729
vt 0.239205 0.261799
vt 0.242785 0.261541
vt 0.781196 0.336870
vt 0.661515 0.259718
vt 0.982569 0.594309
vt 0.971108 0.621276
vt 0.926683 0.602247
vt 0.937828 0.576173
vt 0.992888 0.563102
vt 0.952428 0.555102
vt 0.665050 0.228000
vt 0.921899 0.589870
vt 0.930480 0.572203
vt 0.887211 0.574596
vt 0.897492 0.559253
vt 0.941446 0.552605
vt 0.902311 0.542819
vt 0.876713 0.574663
vt 0.889431 0.555148
vt 0.896185 0.540408
vt 0.859757 0.521164
vt 0.703796 0.580725
vt 0.720325 0.517358
vt 0.864656 0.039315
vt 0.843844 0.055953
vt 0.809821 0.059994
vt 0.687932 0.022680
vt 0.690460 0.000000
vt 0.832411 0.088251
vt 0.268223 0.904393
vt 0.279756 0.962866
vt 0.269645 0.975052
vt 0.244346 0.975008
vt 0.231229 0.907877
vt 0.274355 1.000000
vt 0.686304 0.181899
vt 0.736296 0.141933
vt 0.249887 0.059036
vt 0.047617 0.041951
vt 0.007654 0.010906
vt 0.000000 -0.000000
vt 0.254673 0.033044
vt 0.029798 0.059808
vt 0.237315 0.253786
vt 0.235302 0.256409
vt 0.031392 0.055526
vt 0.063258 0.062729
vt 0.238915 0.258204
vt 0.246651 0.075315
vt 0.049606 0.075856
vt 0.239543 0.258000
vt 0.242497 0.258069
vt 0.242533 0.259042
vt 0.040965 0.075701
vt 0.809437 0.083460
vt 0.675708 0.132370
vt 0.995410 0.530188
vt 0.948369 0.530773
vt 0.953798 0.506618
vt 0.994235 0.500363
vt 0.672173 0.164089
vt 0.940763 0.530440
vt 0.942852 0.508311
vt 0.907174 0.527730
vt 0.905451 0.514096
vt 0.900624 0.527054
vt 0.899668 0.514991
vt 0.767163 0.437463
vt 0.814383 0.392089
vt 0.859757 0.439309
vt 0.472567 0.352773
vt 0.493379 0.336136
vt 0.527402 0.332094
vt 0.472567 0.174196
vt 0.495248 0.176724
vt 0.504812 0.303838
vt 0.391759 0.836540
vt 0.402499 0.825389
vt 0.426830 0.827491
vt 0.329184 0.831973
vt 0.326264 0.793526
vt 0.399638 0.799558
vt 0.636656 0.192483
vt 0.650919 0.210189
vt 0.600927 0.250155
vt 0.604938 0.188948
vt 0.440102 0.426063
vt 0.467500 0.429952
vt 0.472567 0.432279
vt 0.448167 0.408939
vt 0.438630 0.425194
vt 0.248548 0.268246
vt 0.249929 0.265789
vt 0.434994 0.248164
vt 0.457425 0.245612
vt 0.428185 0.421417
vt 0.246461 0.264344
vt 0.427746 0.419155
vt 0.420849 0.249754
vt 0.437619 0.401861
vt 0.432556 0.415755
vt 0.246126 0.264797
vt 0.245219 0.261388
vt 0.246292 0.261307
vt 0.527786 0.308629
vt 0.954730 0.414333
vt 0.917560 0.445139
vt 0.899058 0.423651
vt 0.935657 0.392089
vt 0.973996 0.440964
vt 0.937844 0.460814
vt 0.911755 0.451144
vt 0.898237 0.436895
vt 0.884221 0.473455
vt 0.869785 0.461935
vt 0.928130 0.466513
vt 0.893780 0.487664
vt 0.877776 0.479804
vt 0.859757 0.465042
vt 0.888668 0.491814
vt 0.703796 0.453992
vt 0.511882 0.000000
vt 0.560819 0.032244
vt 0.528520 0.020811
vt 0.532562 0.054834
vt 0.232689 0.841822
vt 0.257375 0.837120
vt 0.269966 0.847486
vt 0.257072 0.811196
vt 0.614501 0.128360
vt 0.654467 0.178351
vt 0.431005 0.069108
vt 0.426697 0.072712
vt 0.403788 0.083556
vt 0.414221 0.095068
vt 0.249055 0.256459
vt 0.247452 0.254365
vt 0.430220 0.068656
vt 0.246005 0.258183
vt 0.396313 0.091377
vt 0.405420 0.102829
vt 0.245614 0.257911
vt 0.556027 0.055218
vt 0.986344 0.471578
vt 0.941324 0.485233
vt 0.934175 0.487847
vt 0.902974 0.500580
vt 0.896934 0.503203
vt 0.916272 0.808362
vt 0.919989 0.835982
vt 0.888804 0.833598
vt 0.894634 0.807885
vt 0.859757 0.823421
vt 0.869797 0.794767
vt 0.974759 0.790709
vt 0.981288 0.819750
vt 0.952661 0.826958
vt 0.943485 0.795035
vt 0.917372 0.776989
vt 0.914152 0.799846
vt 0.914128 0.785552
vt 0.896186 0.786069
vt 0.897115 0.799964
vt 0.892682 0.776352
vt 0.910987 0.621276
vt 0.936153 0.630117
vt 0.028575 0.887721
vt 0.053109 0.818757
vt 0.126410 0.824174
vt 0.135290 0.949737
vt 0.883863 0.622926
vt 0.859757 0.634645
vt 0.961345 0.628331
vt 0.151498 0.793627
vt 0.179314 0.944375
vt 0.116348 0.978723
vt 0.000000 0.902691
vt 0.031448 0.793627
vt 0.703796 0.651331
vt 0.472567 0.651331
vt 0.544401 0.392089
vt 0.631962 0.392089
vt 0.703796 0.910472
vt 0.472567 0.910472
vt 0.544766 0.651331
vt 0.631597 0.651331
vt 0.231229 0.793627
vt -0.000000 0.793627
vt 0.071833 0.534384
vt 0.159395 0.534384
vt 0.462457 0.793525
vt 0.231229 0.793526
vt 0.303427 0.534384
vt 0.390258 0.534384
s 0
g light_uv_test
usemtl uv_test
f 15/1/1 5/2/1 1/3/1 10/4/1
f 2/5/2 6/6/2 31/7/2 35/8/2 34/9/2
f 11/10/3 2/5/3 34/9/3 33/11/3 32/12/3
f 5/13/4 9/14/4 19/15/4 21/16/4 1/17/4
f 1/17/5 21/16/5 20/18/5 14/19/5 10/20/5
f 38/21/6 12/22/6 3/23/6 39/24/6
f 8/25/4 6/26/4 2/27/4 18/28/4 17/29/4
f 16/30/7 17/29/7 18/28/7
f 19/15/8 20/18/8 21/16/8
f 16/30/9 20/31/9 19/32/9 17/29/9
f 16/30/10 18/28/10 2/27/10 11/33/10 13/34/10
f 19/32/11 26/35/11 23/36/11 17/29/11
f 8/25/12 17/29/12 23/36/12 24/37/12
f 13/34/13 16/30/13 22/38/13 25/39/13
f 24/37/6 4/40/6 25/39/6 22/38/6 23/36/6
f 22/38/14 27/41/14 26/35/14 23/36/14
f 9/42/12 19/32/12 26/35/12 29/43/12
f 28/44/6 14/45/6 20/31/6 27/41/6
f 26/35/12 27/41/12 28/44/12 30/46/12 29/43/12
f 20/31/15 16/30/15 22/38/15 27/41/15
f 32/12/16 33/11/16 36/47/16 3/23/16 12/22/16
f 36/47/17 33/11/17 34/9/17 35/8/17
f 36/47/18 35/8/18 31/7/18 7/48/18 3/23/18
f 39/49/19 37/50/19 41/51/19 43/52/19
f 38/53/19 39/49/19 43/52/19 42/54/19
f 7/48/6 37/55/6 39/24/6 3/23/6
f 41/51/6 46/56/6 44/57/6 43/52/6
f 44/57/20 46/56/20 50/58/20 48/59/20
f 44/57/6 45/60/6 42/54/6 43/52/6
f 45/60/21 44/57/21 48/59/21 49/61/21
f 48/59/12 50/58/12 47/62/12 52/63/12
f 51/64/22 52/63/22 40/65/22
f 52/63/23 47/62/23 40/65/23
f 49/61/12 48/59/12 52/63/12 51/64/12
f 15/1/24 10/4/24 53/66/24 56/67/24
f 54/68/25 75/69/25 76/70/25 73/71/25 57/72/25
f 11/10/26 32/12/26 74/73/26 75/69/26 54/68/26
f 56/74/27 53/75/27 66/76/27 64/77/27 60/78/27
f 53/75/5 10/20/5 14/19/5 65/79/5 66/76/5
f 38/21/6 79/80/6 55/81/6 12/22/6
f 59/82/27 62/83/27 63/84/27 54/85/27 57/86/27
f 61/87/28 63/84/28 62/83/28
f 64/77/29 66/76/29 65/79/29
f 61/87/30 62/83/30 64/88/30 65/89/30
f 61/90/31 13/34/31 11/33/31 54/85/31 63/84/31
f 64/88/32 62/83/32 68/91/32 70/92/32
f 59/82/12 69/93/12 68/91/12 62/83/12
f 13/34/33 25/39/33 67/94/33 61/90/33
f 69/93/6 68/91/6 67/94/6 25/39/6 4/40/6
f 67/94/34 68/91/34 70/92/34 71/95/34
f 60/96/12 72/97/12 70/92/12 64/88/12
f 28/44/6 71/95/6 65/89/6 14/45/6
f 70/92/12 72/97/12 30/46/12 28/44/12 71/95/12
f 65/89/35 71/95/35 67/98/35 61/87/35
f 32/12/36 12/22/36 55/81/36 77/99/36 74/73/36
f 77/99/37 76/70/37 75/69/37 74/73/37
f 77/99/38 55/81/38 58/100/38 73/71/38 76/70/38
f 79/101/39 81/102/39 80/103/39 78/104/39
f 38/53/39 42/54/39 81/102/39 79/101/39
f 58/100/6 55/81/6 79/80/6 78/105/6
f 80/103/6 81/102/6 82/106/6 83/107/6
f 82/106/40 85/108/40 86/109/40 83/107/40
f 82/106/6 81/102/6 42/54/6 45/60/6
f 45/60/41 49/61/41 85/108/41 82/106/41
f 85/108/12 87/110/12 84/111/12 86/109/12
f 51/64/42 40/65/42 87/110/42
f 87/110/43 40/65/43 84/111/43
f 49/61/12 51/64/12 87/110/12 85/108/12
f 15/1/44 91/112/44 88/113/44 5/114/44
f 89/115/45 110/116/45 111/117/45 31/7/45 6/6/45
f 92/118/46 108/119/46 109/120/46 110/116/46 89/115/46
f 5/13/4 88/121/4 101/122/4 99/123/4 9/14/4
f 88/121/47 91/124/47 95/125/47 100/126/47 101/122/47
f 113/127/6 114/128/6 90/129/6 93/130/6
f 8/25/4 97/131/4 98/132/4 89/133/4 6/26/4
f 96/134/48 98/132/48 97/135/48
f 99/123/49 101/122/49 100/126/49
f 96/134/50 97/135/50 99/136/50 100/137/50
f 96/134/47 94/138/47 92/139/47 89/133/47 98/132/47
f 99/136/51 97/135/51 103/140/51 105/141/51
f 8/25/12 24/37/12 103/142/12 97/131/12
f 94/138/6 104/143/6 102/144/6 96/134/6
f 24/37/6 103/145/6 102/144/6 104/143/6 4/40/6
f 102/144/52 103/145/52 105/141/52 106/146/52
f 9/42/12 29/43/12 105/141/12 99/136/12
f 107/147/6 106/146/6 100/137/6 95/148/6
f 105/141/12 29/43/12 30/46/12 107/147/12 106/146/12
f 100/137/53 106/146/53 102/144/53 96/134/53
f 108/119/54 93/130/54 90/129/54 112/149/54 109/120/54
f 112/149/55 111/117/55 110/116/55 109/120/55
f 112/149/56 90/129/56 7/48/56 31/7/56 111/117/56
f 114/150/57 116/151/57 41/152/57 37/153/57
f 113/154/57 115/155/57 116/151/57 114/150/57
f 7/48/6 90/129/6 114/128/6 37/55/6
f 41/152/6 116/151/6 117/156/6 46/157/6
f 117/156/58 119/158/58 50/159/58 46/157/58
f 117/156/6 116/151/6 115/155/6 118/160/6
f 118/160/59 120/161/59 119/158/59 117/156/59
f 119/158/12 122/162/12 47/163/12 50/159/12
f 121/164/60 40/65/60 122/162/60
f 122/162/61 40/65/61 47/163/61
f 120/161/12 121/164/12 122/162/12 119/158/12
f 15/1/62 56/67/62 123/165/62 91/112/62
f 124/166/63 57/72/63 73/71/63 138/167/63 137/168/63
f 92/118/64 124/166/64 137/168/64 136/169/64 108/119/64
f 56/74/27 60/78/27 129/170/27 131/171/27 123/172/27
f 123/172/47 131/171/47 130/173/47 95/125/47 91/124/47
f 113/127/6 93/130/6 125/174/6 140/175/6
f 59/82/27 57/86/27 124/176/27 128/177/27 127/178/27
f 126/179/65 127/178/65 128/177/65
f 129/170/66 130/173/66 131/171/66
f 126/179/67 130/180/67 129/181/67 127/178/67
f 126/179/47 128/177/47 124/182/47 92/139/47 94/138/47
f 129/181/68 134/183/68 133/184/68 127/178/68
f 59/82/12 127/178/12 133/184/12 69/93/12
f 94/138/6 126/179/6 132/185/6 104/143/6
f 69/93/6 4/40/6 104/143/6 132/185/6 133/184/6
f 132/185/69 135/186/69 134/183/69 133/184/69
f 60/96/12 129/181/12 134/183/12 72/97/12
f 107/147/6 95/148/6 130/180/6 135/186/6
f 134/183/12 135/186/12 107/147/12 30/46/12 72/97/12
f 130/180/70 126/179/70 132/185/70 135/186/70
f 108/119/71 136/169/71 139/187/71 125/174/71 93/130/71
f 139/187/72 136/169/72 137/168/72 138/167/72
f 139/187/73 138/167/73 73/71/73 58/100/73 125/174/73
f 140/188/74 78/104/74 80/103/74 141/189/74
f 113/154/74 140/188/74 141/189/74 115/155/74
f 58/100/6 78/105/6 140/175/6 125/174/6
f 80/103/6 83/107/6 142/190/6 141/189/6
f 142/190/75 83/107/75 86/109/75 143/191/75
f 142/190/6 118/160/6 115/155/6 141/189/6
f 118/160/76 142/190/76 143/191/76 120/161/76
f 143/191/12 86/109/12 84/111/12 144/192/12
f 121/164/77 144/192/77 40/65/77
f 144/192/78 84/111/78 40/65/78
f 120/161/12 143/191/12 144/192/12 121/164/12
f 153/193/79 146/194/79 148/195/79 154/196/79
f 154/196/80 148/195/80 152/197/80 155/198/80
f 155/199/81 152/200/81 150/201/81 156/202/81
f 156/202/82 150/201/82 146/194/82 153/193/82
f 149/203/82 156/202/82 153/193/82 161/204/82 162/205/82
f 163/206/80 164/207/80 154/196/80 155/198/80 151/208/80
f 156/202/82 149/203/82 159/209/82 160/210/82
f 145/211/79 165/212/79 166/213/79 147/214/79
f 163/206/12 151/208/12 149/203/12 162/205/12
f 149/203/83 151/208/83 158/215/83 159/209/83
f 151/208/80 155/198/80 157/216/80 158/215/80
f 155/199/84 156/202/84 160/210/84 157/217/84
f 163/206/85 162/205/85 161/204/85 164/207/85
f 161/204/79 153/193/79 154/196/79 164/207/79
f 147/214/6 166/213/6 170/218/6 169/219/6
f 145/211/80 147/214/80 169/220/80 168/221/80
f 165/212/12 145/211/12 168/221/12 167/222/12
f 166/213/82 165/212/82 167/222/82 170/218/82
g light_emission
usemtl emission
f 68/223/86 133/224/86 134/225/86 70/226/86
f 22/227/87 67/228/87 71/229/87 27/230/87
f 103/231/88 23/232/88 26/233/88 105/234/88
f 132/235/89 102/236/89 106/237/89 135/238/89
