<?xml version="1.0" encoding="UTF-8" standalone="no"?>
<!DOCTYPE svg PUBLIC "-//W3C//DTD SVG 1.1//EN" "http://www.w3.org/Graphics/SVG/1.1/DTD/svg11.dtd">
<svg width="100%" height="100%" viewBox="0 0 603 494" version="1.1" xmlns="http://www.w3.org/2000/svg" xmlns:xlink="http://www.w3.org/1999/xlink" xml:space="preserve" xmlns:serif="http://www.serif.com/" style="fill-rule:evenodd;clip-rule:evenodd;stroke-linecap:round;stroke-linejoin:round;stroke-miterlimit:1.5;">
    <g transform="matrix(1,0,0,1,-5652.23,-3285.49)">
        <g id="INTERACT2" transform="matrix(0.901489,0,0,0.821161,5606.02,1881.43)">
            <rect x="51.256" y="1709.85" width="668.701" height="600.984" style="fill:none;"/>
            <g id="_-️" serif:id="❤️" transform="matrix(0.964435,0,7.69715e-18,0.84705,-204.714,1586.18)">
                <path d="M949.634,303.425L919.729,563.273C915.566,611.516 865.204,673.788 803.71,673.788L663.374,657.891L737.81,822.038L516.355,660.34L424.525,659.411C363.032,659.411 313.106,611.384 313.106,534.519L293.553,358.056C293.553,281.192 343.478,218.787 404.972,218.787L838.215,164.155C899.709,164.155 949.634,226.56 949.634,303.425Z" style="fill:rgb(235,235,235);stroke:black;stroke-width:19.46px;"/>
            </g>
            <g id="_-️1" serif:id="❤️" transform="matrix(0.964435,1.69002e-17,1.53943e-17,0.84705,-215.807,1598.36)">
                <path d="M949.634,303.425L919.729,563.273C915.566,611.516 865.204,673.788 803.71,673.788L663.374,657.891L737.81,822.038L516.355,660.34L424.525,659.411C363.032,659.411 313.106,611.384 313.106,534.519L293.553,358.056C293.553,281.192 343.478,218.787 404.972,218.787L838.215,164.155C899.709,164.155 949.634,226.56 949.634,303.425Z" style="fill:rgb(60,60,59);stroke:black;stroke-width:19.46px;"/>
            </g>
        </g>
    </g>
</svg>
