<?xml version="1.0" encoding="UTF-8" standalone="no"?>
<!DOCTYPE svg PUBLIC "-//W3C//DTD SVG 1.1//EN" "http://www.w3.org/Graphics/SVG/1.1/DTD/svg11.dtd">
<svg width="100%" height="100%" viewBox="0 0 603 494" version="1.1" xmlns="http://www.w3.org/2000/svg" xmlns:xlink="http://www.w3.org/1999/xlink" xml:space="preserve" xmlns:serif="http://www.serif.com/" style="fill-rule:evenodd;clip-rule:evenodd;stroke-linecap:round;stroke-linejoin:round;stroke-miterlimit:1.5;">
    <g transform="matrix(1,0,0,1,-4372.23,-3285.49)">
        <g id="INTERACT2_FULL" transform="matrix(0.901489,0,0,0.821161,4326.02,1881.43)">
            <rect x="51.256" y="1709.85" width="668.701" height="600.984" style="fill:none;"/>
            <g id="_-️" serif:id="❤️" transform="matrix(0.964435,0,7.69715e-18,0.84705,-204.714,1586.18)">
                <path d="M949.634,303.425L919.729,563.273C915.566,611.516 865.204,673.788 803.71,673.788L663.374,657.891L737.81,822.038L516.355,660.34L424.525,659.411C363.032,659.411 313.106,611.384 313.106,534.519L293.553,358.056C293.553,281.192 343.478,218.787 404.972,218.787L838.215,164.155C899.709,164.155 949.634,226.56 949.634,303.425Z" style="fill:rgb(235,235,235);stroke:black;stroke-width:19.46px;"/>
            </g>
            <g id="_-️1" serif:id="❤️" transform="matrix(0.964435,1.69002e-17,1.53943e-17,0.84705,-215.807,1598.36)">
                <path d="M949.634,303.425L919.729,563.273C915.566,611.516 865.204,673.788 803.71,673.788L663.374,657.891L737.81,822.038L516.355,660.34L424.525,659.411C363.032,659.411 313.106,611.384 313.106,534.519L293.553,358.056C293.553,281.192 343.478,218.787 404.972,218.787L838.215,164.155C899.709,164.155 949.634,226.56 949.634,303.425Z" style="fill:rgb(60,60,59);stroke:black;stroke-width:19.46px;"/>
            </g>
            <g id="KEY" transform="matrix(1.49257,-0.101695,0.0926332,1.63858,-1590.23,898.249)">
                <g transform="matrix(0.829959,0,0,0.917322,182.959,32.1108)">
                    <path d="M1403.35,712.641L1403.35,781.415C1403.35,800.394 1386.32,815.802 1365.34,815.802L1289.33,815.802C1268.35,815.802 1251.32,800.394 1251.32,781.415L1251.32,712.641C1251.32,693.662 1268.35,678.254 1289.33,678.254L1365.34,678.254C1386.32,678.254 1403.35,693.662 1403.35,712.641Z" style="fill:rgb(235,235,235);stroke:black;stroke-width:13px;"/>
                </g>
                <g transform="matrix(0.847324,1.12344e-17,0,0.936515,151.23,26.4538)">
                    <path d="M1403.35,712.641L1403.35,781.415C1403.35,800.394 1386.32,815.802 1365.34,815.802L1289.33,815.802C1268.35,815.802 1251.32,800.394 1251.32,781.415L1251.32,712.641C1251.32,693.662 1268.35,678.254 1289.33,678.254L1365.34,678.254C1386.32,678.254 1403.35,693.662 1403.35,712.641Z" style="fill:rgb(235,235,213);stroke:black;stroke-width:12.73px;"/>
                </g>
                <g transform="matrix(0.741203,-0.029014,0.029014,0.741203,59.9268,552.285)">
                    <g transform="matrix(125,0,0,125,1673.34,343.56)">
                    </g>
                    <text x="1586.97px" y="343.56px" style="font-family:'CooperBlack', 'Cooper Black';font-size:125px;">E</text>
                </g>
            </g>
        </g>
    </g>
</svg>
