<?xml version="1.0" encoding="UTF-8" standalone="no"?>
<!DOCTYPE svg PUBLIC "-//W3C//DTD SVG 1.1//EN" "http://www.w3.org/Graphics/SVG/1.1/DTD/svg11.dtd">
<svg width="100%" height="100%" viewBox="0 0 218 223" version="1.1" xmlns="http://www.w3.org/2000/svg" xmlns:xlink="http://www.w3.org/1999/xlink" xml:space="preserve" xmlns:serif="http://www.serif.com/" style="fill-rule:evenodd;clip-rule:evenodd;stroke-linecap:round;stroke-linejoin:round;stroke-miterlimit:1.5;">
    <g transform="matrix(1,0,0,1,-6290.72,-3249.77)">
        <g id="KEY2" transform="matrix(0.324795,0,0,0.369613,6274.07,2617.79)">
            <rect x="51.256" y="1709.85" width="668.701" height="600.984" style="fill:none;"/>
            <g id="KEY" transform="matrix(3.07296,-0.16759,0.190716,2.70034,-3689.88,277.324)">
                <g transform="matrix(0.809525,0,0,0.894737,208.529,50.5363)">
                    <path d="M1403.35,712.641L1403.35,781.415C1403.35,800.394 1386.32,815.802 1365.34,815.802L1289.33,815.802C1268.35,815.802 1251.32,800.394 1251.32,781.415L1251.32,712.641C1251.32,693.662 1268.35,678.254 1289.33,678.254L1365.34,678.254C1386.32,678.254 1403.35,693.662 1403.35,712.641Z" style="fill:rgb(235,235,235);stroke:black;stroke-width:17.96px;"/>
                </g>
                <g transform="matrix(0.809525,0,0,0.894737,198.529,60.5363)">
                    <path d="M1403.35,712.641L1403.35,781.415C1403.35,800.394 1386.32,815.802 1365.34,815.802L1289.33,815.802C1268.35,815.802 1251.32,800.394 1251.32,781.415L1251.32,712.641C1251.32,693.662 1268.35,678.254 1289.33,678.254L1365.34,678.254C1386.32,678.254 1403.35,693.662 1403.35,712.641Z" style="fill:rgb(228,152,127);stroke:black;stroke-width:17.96px;"/>
                </g>
                <g transform="matrix(0.999235,-0.0391145,0.0391145,0.999235,-347.936,506.22)">
                    <g transform="matrix(83.3333,0,0,83.3333,1633.14,314.56)">
                    </g>
                    <text x="1586.97px" y="314.56px" style="font-family:'DMSerifText-Regular', 'DM Serif Text';font-size:83.333px;">E</text>
                </g>
            </g>
        </g>
    </g>
</svg>
