<?xml version="1.0" encoding="UTF-8" standalone="no"?>
<!DOCTYPE svg PUBLIC "-//W3C//DTD SVG 1.1//EN" "http://www.w3.org/Graphics/SVG/1.1/DTD/svg11.dtd">
<svg width="100%" height="100%" viewBox="0 0 1430 2090" version="1.1" xmlns="http://www.w3.org/2000/svg" xmlns:xlink="http://www.w3.org/1999/xlink" xml:space="preserve" xmlns:serif="http://www.serif.com/" style="fill-rule:evenodd;clip-rule:evenodd;stroke-linecap:round;stroke-linejoin:round;stroke-miterlimit:1.5;">
    <g transform="matrix(1,0,0,1,-10115.4,-4803)">
        <g id="MENU" transform="matrix(1.11413,0,0,1.00535,919.486,2115.12)">
            <rect x="8253.94" y="2673.58" width="1283.22" height="2078.26" style="fill:none;"/>
            <g id="Capa1" transform="matrix(0.897561,0,0,0.994682,882.269,-54.829)">
                <path d="M9059.25,3486.01L9059.25,3546C9059.25,3562.55 9045.81,3575.99 9029.26,3575.99L8626.48,3575.99C8609.93,3575.99 8596.49,3562.55 8596.49,3546L8596.49,3486.01C8596.49,3469.46 8609.93,3456.02 8626.48,3456.02L9029.26,3456.02C9045.81,3456.02 9059.25,3469.46 9059.25,3486.01Z" style="fill-opacity:0.55;stroke:black;stroke-opacity:0;stroke-width:15.32px;"/>
                <g transform="matrix(0.759259,0,0,0.690476,2120.94,1199.72)">
                    <path d="M9059.25,3486.01L9059.25,3546C9059.25,3562.55 9047.03,3575.99 9031.98,3575.99L8623.77,3575.99C8608.71,3575.99 8596.49,3562.55 8596.49,3546L8596.49,3486.01C8596.49,3469.46 8608.71,3456.02 8623.77,3456.02L9031.98,3456.02C9047.03,3456.02 9059.25,3469.46 9059.25,3486.01Z" style="fill-opacity:0.17;stroke:black;stroke-opacity:0;stroke-width:21.12px;"/>
                </g>
                <g transform="matrix(0.759259,0,0,0.690476,2120.94,1299.72)">
                    <path d="M9059.25,3486.01L9059.25,3546C9059.25,3562.55 9047.03,3575.99 9031.98,3575.99L8623.77,3575.99C8608.71,3575.99 8596.49,3562.55 8596.49,3546L8596.49,3486.01C8596.49,3469.46 8608.71,3456.02 8623.77,3456.02L9031.98,3456.02C9047.03,3456.02 9059.25,3469.46 9059.25,3486.01Z" style="fill-opacity:0.18;stroke:black;stroke-opacity:0;stroke-width:21.12px;"/>
                </g>
                <g transform="matrix(0.759259,0,0,0.690476,2120.94,1399.72)">
                    <path d="M9059.25,3486.01L9059.25,3546C9059.25,3562.55 9047.03,3575.99 9031.98,3575.99L8623.77,3575.99C8608.71,3575.99 8596.49,3562.55 8596.49,3546L8596.49,3486.01C8596.49,3469.46 8608.71,3456.02 8623.77,3456.02L9031.98,3456.02C9047.03,3456.02 9059.25,3469.46 9059.25,3486.01Z" style="fill-opacity:0.13;stroke:black;stroke-opacity:0;stroke-width:21.12px;"/>
                </g>
                <g transform="matrix(0.759259,0,0,0.690476,2120.94,1499.72)">
                    <path d="M9059.25,3486.01L9059.25,3546C9059.25,3562.55 9047.03,3575.99 9031.98,3575.99L8623.77,3575.99C8608.71,3575.99 8596.49,3562.55 8596.49,3546L8596.49,3486.01C8596.49,3469.46 8608.71,3456.02 8623.77,3456.02L9031.98,3456.02C9047.03,3456.02 9059.25,3469.46 9059.25,3486.01Z" style="fill-opacity:0.12;stroke:black;stroke-opacity:0;stroke-width:21.12px;"/>
                </g>
                <g transform="matrix(0.759259,0,0,0.690476,2120.94,1599.72)">
                    <path d="M9059.25,3486.01L9059.25,3546C9059.25,3562.55 9047.03,3575.99 9031.98,3575.99L8623.77,3575.99C8608.71,3575.99 8596.49,3562.55 8596.49,3546L8596.49,3486.01C8596.49,3469.46 8608.71,3456.02 8623.77,3456.02L9031.98,3456.02C9047.03,3456.02 9059.25,3469.46 9059.25,3486.01Z" style="fill-opacity:0.33;stroke:black;stroke-opacity:0;stroke-width:21.12px;"/>
                </g>
            </g>
        </g>
    </g>
</svg>
