<?xml version="1.0" encoding="UTF-8" standalone="no"?>
<!DOCTYPE svg PUBLIC "-//W3C//DTD SVG 1.1//EN" "http://www.w3.org/Graphics/SVG/1.1/DTD/svg11.dtd">
<svg width="100%" height="100%" viewBox="0 0 1701 360" version="1.1" xmlns="http://www.w3.org/2000/svg" xmlns:xlink="http://www.w3.org/1999/xlink" xml:space="preserve" xmlns:serif="http://www.serif.com/" style="fill-rule:evenodd;clip-rule:evenodd;stroke-linecap:round;stroke-linejoin:round;stroke-miterlimit:1.5;">
    <g transform="matrix(1,0,0,1,-8307.9,-3129.01)">
        <g id="TUTORIAL1" transform="matrix(0.991015,0,0,0.828797,6773.92,1496.1)">
            <rect x="1547.89" y="1970.21" width="1716.21" height="433.386" style="fill:none;"/>
            <g transform="matrix(-0.931293,0.0430426,-0.0110018,-0.34034,4610.26,2259.9)">
                <path d="M3144.89,922.545C3143.37,966.15 3126.52,1126.8 3060.75,1116.43C3060.75,1116.43 1585.09,923.467 1585.11,923.468C1523.25,920.099 1521.59,726.439 1521.58,692.593L1521.03,292.026C1521.03,291.91 1521.03,291.795 1521.03,291.679L1522.97,256.509C1524.11,245.953 1525.97,233.228 1528.67,219.906C1537.63,175.712 1556.55,123.889 1580.78,123.8L3109.31,107.695C3109.33,107.695 3109.36,107.695 3109.38,107.695C3131.32,107.695 3149.93,134.754 3159.27,160.193L3165,178.98L3168.54,196.271L3171.35,220.336L3172.09,241.106C3172.09,244.45 3172.03,247.79 3171.89,251.106L3144.81,926.694L3144.89,922.545Z" style="fill-opacity:0.8;stroke:black;stroke-width:22.44px;"/>
            </g>
            <g transform="matrix(-0.931293,0.0430426,-0.0110018,-0.34034,4604.47,2267.13)">
                <path d="M3144.89,922.545C3143.37,966.15 3126.52,1126.8 3060.75,1116.43C3060.75,1116.43 1585.09,923.467 1585.11,923.468C1523.25,920.099 1521.59,726.439 1521.58,692.593L1521.03,292.026C1521.03,291.91 1521.03,291.795 1521.03,291.679L1522.97,256.509C1524.11,245.953 1525.97,233.228 1528.67,219.906C1537.63,175.712 1556.55,123.889 1580.78,123.8L3109.31,107.695C3109.33,107.695 3109.36,107.695 3109.38,107.695C3131.32,107.695 3149.93,134.754 3159.27,160.193L3165,178.98L3168.54,196.271L3171.35,220.336L3172.09,241.106C3172.09,244.45 3172.03,247.79 3171.89,251.106L3144.81,926.694L3144.89,922.545Z" style="fill:rgb(60,60,59);stroke:black;stroke-width:22.44px;"/>
            </g>
        </g>
    </g>
</svg>
